<svg xmlns="http://www.w3.org/2000/svg" viewBox="0 0 256 256">
  <rect width="256" height="256" fill="#0B0B0C"/>
  <path d="M128 48c-35 0-63 28-63 63 0 25 14 46 35 57v40h56v-40c21-11 35-32 35-57 0-35-28-63-63-63zm0 16c26 0 47 21 47 47 0 19-11 35-27 43v38h-40v-38c-16-8-27-24-27-43 0-26 21-47 47-47z" fill="#C8A04A"/>
  <path d="M128 80c-17 0-31 14-31 31 0 12 7 23 18 28l13-8c-6-3-10-9-10-16 0-10 8-18 18-18s18 8 18 18c0 7-4 13-10 16l13 8c11-5 18-16 18-28 0-17-14-31-31-31z" fill="#F59E0B" opacity="0.8"/>
</svg>